<?xml version="1.0" encoding="UTF-8" standalone="no"?>
<svg
   xmlns:dc="http://purl.org/dc/elements/1.1/"
   xmlns:cc="http://creativecommons.org/ns#"
   xmlns:rdf="http://www.w3.org/1999/02/22-rdf-syntax-ns#"
   xmlns:svg="http://www.w3.org/2000/svg"
   xmlns="http://www.w3.org/2000/svg"
   xmlns:sodipodi="http://sodipodi.sourceforge.net/DTD/sodipodi-0.dtd"
   xmlns:inkscape="http://www.inkscape.org/namespaces/inkscape"
   width="1396.6077"
   height="451.94464"
   viewBox="0 0 1396.6076 451.94465"
   version="1.1"
   id="svg2"
   inkscape:version="0.92.2 5c3e80d, 2017-08-06"
   sodipodi:docname="IE_University_logo.svg">
  <metadata
     id="metadata43">
    <rdf:RDF>
      <cc:Work
         rdf:about="">
        <dc:format>image/svg+xml</dc:format>
        <dc:type
           rdf:resource="http://purl.org/dc/dcmitype/StillImage" />
        <dc:title>Page 1</dc:title>
      </cc:Work>
    </rdf:RDF>
  </metadata>
  <sodipodi:namedview
     pagecolor="#ffffff"
     bordercolor="#666666"
     borderopacity="1"
     objecttolerance="10"
     gridtolerance="10"
     guidetolerance="10"
     inkscape:pageopacity="0"
     inkscape:pageshadow="2"
     inkscape:window-width="1440"
     inkscape:window-height="757"
     id="namedview41"
     showgrid="false"
     fit-margin-top="0"
     fit-margin-left="0"
     fit-margin-right="0"
     fit-margin-bottom="0"
     inkscape:zoom="0.4585839"
     inkscape:cx="537.47075"
     inkscape:cy="479.50258"
     inkscape:window-x="0"
     inkscape:window-y="1"
     inkscape:window-maximized="1"
     inkscape:current-layer="svg2"
     inkscape:snap-global="false" />
  <!-- Generator: Sketch 40.3 (33839) - http://www.bohemiancoding.com/sketch -->
  <title
     id="title4">Page 1</title>
  <desc
     id="desc6">Created with Sketch.</desc>
  <defs
     id="defs8" />
  <path
     style="fill:#000000"
     d=""
     id="path981"
     inkscape:connector-curvature="0" />
  <g
     id="g1126"
     transform="translate(10.147957,9.6798882)">
    <rect
       y="385.41226"
       x="483.68045"
       height="46.883461"
       width="902.77924"
       id="rect987"
       style="opacity:1;fill:#0098df;fill-opacity:1;fill-rule:nonzero;stroke:#000000;stroke-width:0;stroke-miterlimit:4;stroke-dasharray:none;stroke-dashoffset:0;stroke-opacity:1" />
    <path
       inkscape:connector-curvature="0"
       id="path1113"
       d="m 578.49847,340.0154 c -7.25513,-2.022 -14.01258,-7.48534 -16.53401,-13.36752 -2.21136,-5.15877 -2.56607,-9.62641 -2.56607,-32.31408 v -22.16656 h 6.3667 6.36669 v 22.761 c 0,14.70784 0.25349,23.6613 0.71003,25.30558 0.92215,3.32189 5.1984,7.5981 8.52035,8.52032 6.36026,1.76572 12.7011,0.44906 16.60377,-3.44777 3.90093,-3.89525 4.08558,-5.2886 4.08558,-30.81923 v -22.3199 h 6.3668 6.36669 l -0.0105,21.80599 c 0,12.1554 -0.30046,23.62853 -0.67293,25.92412 -1.63493,10.07704 -8.45142,17.41101 -18.74069,20.16364 -3.92921,1.05114 -13.02487,1.02655 -16.87187,-0.0456 z m 63.25199,0.043 c -4.40975,-1.11613 -9.6295,-3.73418 -12.64883,-6.34419 l -2.47965,-2.14355 3.37555,-4.55341 c 2.06858,-2.79042 3.66031,-4.38197 4.11091,-4.11061 0.40455,0.24354 1.86421,1.25468 3.24392,2.24698 3.59361,2.5847 10.53867,4.56737 14.39793,4.1103 7.38402,-0.87452 10.64581,-7.20107 6.27763,-12.17609 -1.91058,-2.1761 -3.84506,-3.2506 -15.32263,-8.51124 -9.45415,-4.33324 -14.52651,-10.51017 -14.54021,-17.70664 -0.0214,-11.38495 9.8594,-20.00887 22.87028,-19.96046 6.92067,0.0257 12.32191,1.62625 17.74081,5.25696 l 2.73551,1.83275 -2.66013,4.88326 c -1.46304,2.68579 -2.72273,4.95979 -2.79933,5.05331 -0.0766,0.0936 -1.79007,-0.82395 -3.80758,-2.03884 -10.03639,-6.04359 -21.35239,-3.51489 -21.35239,4.77146 0,2.96641 3.73209,6.28422 9.96418,8.85826 13.90228,5.74196 19.06229,9.78754 21.00433,16.4677 2.6542,9.13034 -1.87595,18.71694 -10.74662,22.74147 -3.33277,1.51199 -4.97902,1.83695 -10.03516,1.98078 -3.47484,0.0988 -7.44409,-0.18121 -9.32852,-0.6582 z m 215.11803,-0.0174 c -4.41843,-1.11554 -11.05894,-4.52234 -13.22812,-6.78651 l -1.73185,-1.80765 3.3297,-4.49155 c 2.03937,-2.75094 3.61475,-4.31995 4.06516,-4.04877 0.40444,0.24355 1.86421,1.25468 3.24391,2.24699 1.37959,0.9923 4.48788,2.40546 6.90738,3.14033 7.04474,2.13979 12.62533,0.87904 14.81014,-3.34589 2.85959,-5.52991 -0.37748,-9.22737 -12.96441,-14.80812 -12.93765,-5.7362 -17.96398,-11.21067 -17.9125,-19.50918 0.10928,-17.62607 22.67633,-25.81491 40.31481,-14.62896 l 3.04148,1.92888 -2.67892,4.91753 c -1.47335,2.70464 -2.76788,5.0204 -2.87675,5.14615 -0.10887,0.12574 -1.04092,-0.37171 -2.07133,-1.10546 -3.83811,-2.73295 -7.91379,-4.08379 -12.52494,-4.1513 -5.01497,-0.0734 -7.68153,1.08137 -9.46374,4.09849 -2.82037,4.77438 0.21754,9.09509 8.92285,12.69058 13.90229,5.74196 19.0623,9.78754 21.00434,16.46769 2.65419,9.13036 -1.87597,18.71695 -10.74673,22.74147 -3.33266,1.51201 -4.97892,1.83696 -10.03506,1.98079 -3.52733,0.10031 -7.44766,-0.18123 -9.40542,-0.67549 z m 53.97238,-0.12659 c -4.68683,-1.24404 -9.41646,-3.59764 -12.38359,-6.16251 l -2.43604,-2.10579 3.36554,-4.61265 c 1.85104,-2.53696 3.53806,-4.53127 3.74895,-4.43178 0.21091,0.0995 1.95921,1.24601 3.88511,2.54785 7.297,4.93248 16.06849,5.56703 20.17593,1.45958 1.76443,-1.76436 2.10759,-2.5765 2.10759,-4.98727 0,-3.6032 -2.07583,-5.89091 -7.81717,-8.61512 -2.17868,-1.03377 -6.39917,-3.0281 -9.37887,-4.43182 -9.27785,-4.37071 -13.73744,-9.40783 -14.45114,-16.32239 -1.12172,-10.86768 8.18199,-20.42881 20.6578,-21.22946 7.49311,-0.48088 15.88282,1.80126 20.77821,5.65205 l 1.6481,1.29636 -2.54216,5.05625 c -1.39829,2.78094 -2.64767,5.05625 -2.77636,5.05625 -0.12879,0 -1.87667,-0.98911 -3.88427,-2.19801 -9.58538,-5.77201 -20.09975,-3.79959 -21.14129,3.96593 -0.34061,2.53941 -0.19773,2.88136 2.12853,5.09299 1.60306,1.52409 4.87404,3.37209 9.15857,5.1743 11.1912,4.70731 16.06339,8.18007 18.84413,13.43164 0.88264,1.66679 1.17912,3.59212 1.17656,7.64005 0,4.63652 -0.24868,5.87894 -1.7152,8.6736 -2.43053,4.63156 -6.78257,8.24311 -11.80082,9.7931 -4.89885,1.51312 -12.20751,1.62132 -17.34811,0.25685 z m 79.0919,0.12661 c -4.40544,-1.11227 -11.05689,-4.52024 -13.21146,-6.76913 l -1.7152,-1.79026 2.98634,-4.18495 c 1.64248,-2.30173 3.19877,-4.31631 3.45859,-4.47686 0.25982,-0.16056 1.87268,0.70369 3.58422,1.92055 3.45766,2.45829 10.0136,4.73469 13.57412,4.71324 3.37122,-0.0204 7.46932,-2.08769 8.64492,-4.36107 2.954,-5.71216 -0.1879,-9.32753 -13.04149,-15.00711 -7.45664,-3.29479 -9.06205,-4.282 -12.42442,-7.64004 -4.53651,-4.53062 -5.74492,-7.72456 -5.19923,-13.74237 1.48601,-16.38793 23.42194,-23.32751 40.16814,-12.70742 l 3.0319,1.92275 -2.6866,4.92364 c -1.4776,2.708 -2.7678,5.02651 -2.8671,5.15226 -0.099,0.12574 -1.0236,-0.37171 -2.0541,-1.10546 -6.018,-4.28517 -14.81507,-5.56394 -19.25984,-2.79966 -2.55616,1.58977 -3.7701,3.73748 -3.7701,6.67005 0,2.8682 3.82065,6.22995 9.96419,8.76738 13.90215,5.74196 19.06225,9.78754 21.00435,16.46769 1.9298,6.63895 -0.3547,14.87835 -5.339,19.25462 -4.2494,3.731 -8.6371,5.28611 -15.44281,5.47331 -3.50945,0.0965 -7.45757,-0.18939 -9.40542,-0.68116 z m 65.43243,-0.12098 c -12.2719,-3.23765 -21.346,-12.40591 -24.4981,-24.75214 -1.2221,-4.78689 -1.237,-14.24109 -0.03,-18.77834 2.9686,-11.1554 11.1774,-19.97946 21.9808,-23.6285 11.1762,-3.77495 26.9004,-1.25852 34.8675,5.58003 l 2.0791,1.78449 -2.6193,4.13836 c -1.4407,2.27609 -2.8317,4.36471 -3.0913,4.64134 -0.2596,0.27665 -1.9397,-0.48465 -3.7334,-1.69177 -4.9867,-3.3558 -9.0914,-4.54126 -15.7242,-4.54126 -4.9542,0 -6.21,0.23569 -9.2748,1.74089 -4.7395,2.32759 -7.9936,5.6708 -10.39,10.6742 -1.8101,3.77966 -1.9819,4.69022 -1.9819,10.50508 0,5.80079 0.1755,6.73724 1.9753,10.53524 2.6964,5.69016 5.331,8.48249 10.3216,10.93934 3.8515,1.89606 4.7433,2.07978 9.9732,2.05465 6.7688,-0.0326 10.8758,-1.40454 16.1022,-5.37907 1.8455,-1.40344 3.4698,-2.55172 3.6098,-2.55172 0.1398,0 1.7017,1.99007 3.4708,4.42238 l 3.2166,4.42239 -2.688,2.32054 c -3.5599,3.07336 -10.3312,6.45187 -15.2599,7.61394 -5.0084,1.18085 -13.7313,1.157 -18.3067,-0.0501 z m 143.5694,-0.19696 c -6.0942,-1.77697 -10.5072,-4.39576 -15.0315,-8.92004 -6.9475,-6.94755 -10.2907,-15.13786 -10.2907,-25.21062 0,-9.88346 3.1736,-17.758 9.8459,-24.43027 7.2605,-7.26055 16.4484,-10.65858 27.2546,-10.07982 16.2357,0.86957 28.8804,11.48461 32.1693,27.00573 2.618,12.35542 -0.7986,23.70921 -9.8309,32.66877 -5.1325,5.09125 -9.3117,7.53732 -15.7367,9.21082 -4.8872,1.27295 -13.5719,1.15739 -18.38,-0.24457 z m 18.9601,-12.38748 c 4.2895,-2.09863 8.29,-6.32061 10.5429,-11.1266 1.5124,-3.22607 1.6938,-4.36358 1.6938,-10.61658 0,-6.32284 -0.1673,-7.34408 -1.7218,-10.50936 -2.218,-4.51589 -6.154,-8.46189 -10.6366,-10.66328 -3.0978,-1.52136 -4.2999,-1.74438 -9.2884,-1.72317 -5.0183,0.0213 -6.1879,0.25318 -9.4167,1.86676 -7.3553,3.67591 -11.9202,10.85228 -12.4225,19.52921 -0.6499,11.22562 5.2893,20.76706 15.1575,24.35119 4.3439,1.57764 11.6275,1.07605 16.0918,-1.10817 z m 61.1154,12.67726 c -15.3774,-3.72609 -26.2579,-17.98916 -26.2579,-34.42044 0,-9.64682 3.3772,-17.8621 10.0942,-24.55465 13.3834,-13.33439 35.3611,-13.64639 49.2024,-0.69851 14.2164,13.2987 14.4299,36.47135 0.4652,50.4944 -4.6189,4.6381 -10.9674,8.14762 -16.996,9.3956 -4.384,0.90752 -12.2978,0.8038 -16.5079,-0.2164 z m 17.6883,-12.57091 c 9.7076,-4.46941 15.1904,-16.60687 12.4895,-27.64842 -3.5091,-14.34614 -18.2401,-21.37285 -31.3135,-14.93676 -17.7456,8.73608 -15.7238,36.74349 3.1393,43.48962 4.4898,1.60571 11.0549,1.22713 15.6847,-0.90444 z M 497.64125,305.91791 v -33.83017 l 16.07594,0.19889 c 15.3128,0.18947 16.23395,0.27033 19.40387,1.70354 9.00501,4.07137 12.64365,14.26269 8.35208,23.39272 -0.71947,1.53059 -2.2809,3.637 -3.46986,4.68093 -1.18897,1.04392 -2.16175,2.01528 -2.16175,2.15858 0,0.14331 0.85641,0.61529 1.90313,1.04886 5.13836,2.12837 8.6595,9.25917 8.13894,16.4823 -0.546,7.57387 -4.05411,12.51373 -11.31543,15.93337 -3.44676,1.62322 -3.76382,1.65232 -20.2143,1.85512 l -16.71262,0.20603 z m 30.91337,21.89883 c 4.44409,-2.10886 6.11131,-9.95202 3.01413,-14.17948 -2.32632,-3.17528 -4.82695,-3.90438 -13.39485,-3.90548 l -7.79922,-0.001 v 9.55006 9.55007 h 8.02133 c 6.01923,0 8.5548,-0.25314 10.15861,-1.01421 z m -1.82629,-29.51434 c 3.52272,-2.14795 4.76751,-6.41399 3.09281,-10.59948 -1.60027,-3.99947 -3.42516,-4.7123 -12.06381,-4.7123 h -7.38265 v 8.27672 8.27673 l 7.16254,-0.002 c 5.96888,-0.002 7.50063,-0.20853 9.19111,-1.23929 z m 159.36756,7.60838 V 272.1672 h 6.3667 6.36679 v 33.74358 33.74357 h -6.36679 -6.3667 z m 30.5603,0 V 272.1672 l 6.52581,0.006 6.52593,0.006 13.37007,20.41363 c 7.3536,11.22749 14.22962,22.10448 15.28014,24.17107 l 1.90998,3.75746 -0.20641,-24.17706 -0.20641,-24.17707 h 6.41398 6.41388 v 33.74358 33.74356 h -6.38242 -6.38253 l -13.19512,-20.05464 c -7.25739,-11.03005 -14.11513,-21.70226 -15.23951,-23.716 l -2.04426,-3.66136 -0.0245,23.716 -0.0245,23.716 h -6.36669 -6.36669 z m 73.85378,0 V 272.1672 h 20.71754 20.71765 l -0.18487,5.25254 -0.18496,5.25253 -14.16599,0.17136 -14.16589,0.17134 v 8.58288 8.58288 h 11.46001 11.46011 v 5.41171 5.4117 h -11.46011 -11.46001 v 8.90167 8.90165 l 14.80258,0.17091 14.80258,0.1709 0.18496,5.25254 0.18496,5.25254 H 811.8642 790.50997 Z m 313.24223,0 V 272.1672 h 6.3667 6.3667 v 14.32511 14.32509 h 15.2802 15.28 V 286.49231 272.1672 h 6.3667 6.3668 v 33.74358 33.74357 h -6.3668 -6.3667 v -14.00677 -14.00677 h -15.28 -15.2802 v 14.00677 14.00677 h -6.3667 -6.3667 z m 233.0217,0 V 272.1672 h 6.0484 6.0483 v 28.33186 28.33187 h 14.6435 14.6434 v 5.41172 5.4117 h -20.6918 -20.6918 z"
       style="fill:#000000;stroke-width:0.63667119" />
    <g
       transform="matrix(1.3387196,0,0,1.3387196,-10.147957,-9.6798882)"
       id="g1118">
      <path
         d="M 42.52,0 C 65.949,0 85.04,19.02 85.04,42.491 85.04,65.962 65.949,85.039 42.52,85.039 19.033,85.039 0,65.962 0,42.491 0,19.02 19.033,0 42.52,0"
         id="Fill-27"
         inkscape:connector-curvature="0"
         style="fill:#0098e0;fill-rule:evenodd;stroke:none;stroke-width:1" />
      <polygon
         id="Fill-28"
         points="76.5161,331.653 76.5161,110.551 8.4851,110.551 8.4851,331.653 "
         style="fill:#002f91;fill-rule:evenodd;stroke:none;stroke-width:1" />
      <path
         d="m 208.36,192.04 h -43.705 c 4.179,-17.235 18.202,-32.849 43.705,-32.849 25.503,0 39.526,15.614 43.705,32.849 z m 111.303,29.763 -0.001,-1.208 c -0.233,-64.087 -43.085,-115.95 -113.068,-115.95 -69.984,0 -112.8352,51.863 -113.0682,115.95 l -0.002,1.208 c 0,70.3837 54.4912,115.7917 122.6062,115.7917 35.419,0 71.292,-15.892 93.089,-43.593 l -46.353,-33.992 c -12.229,14.337 -27.664,25.82 -49.915,25.82 -26.337,0 -45.863,-16.802 -51.312,-42.6847 h 156.229 c 1.158,-6.828 1.795,-13.938 1.795,-21.342 z"
         id="Fill-29"
         inkscape:connector-curvature="0"
         style="fill:#002f91;fill-rule:evenodd;stroke:none;stroke-width:1" />
    </g>
  </g>
</svg>
