<svg width="120" height="120" viewBox="0 0 120 120" fill="none" xmlns="http://www.w3.org/2000/svg">
<rect width="120" height="120" fill="#0A1733"/>
<path d="M68.9251 86.6367C79.7523 86.6367 84.9737 81.6074 87.2389 71.2026L92.1534 47.9742H74.4154L73.7245 50.8534C76.5272 51.1224 79.4451 52.5429 79.4451 55.8066C79.4451 59.0317 77.4102 66.0577 76.7193 69.5131C75.951 73.2375 74.4154 76.7698 70.1153 76.7698C66.6216 76.7698 64.3946 74.8883 64.3946 71.2408C64.3946 70.4347 64.5098 69.59 64.7019 68.7453L69.1554 47.9742H50.8416L50.1503 50.8534C52.9147 51.0841 55.9095 52.5046 55.9095 55.7297C55.9095 56.9968 55.4872 58.3404 55.2182 59.6458H41.8955L47.7316 32.0404H29.6095L28.9568 34.92C31.8365 35.2272 34.6774 36.3792 34.6774 39.7963C34.6774 40.3338 34.601 40.7944 34.4854 41.2933L28.6496 69.2059H59.9794C59.8642 70.2809 59.7873 71.4711 59.8642 72.5461H58.7892C56.4471 72.4697 53.5292 73.6981 53.5292 76.4626C53.5292 83.9491 63.0893 86.6367 68.9251 86.6367Z" fill="white"/>
</svg>