<?xml version="1.0" encoding="utf-8"?>
<!-- Generator: Adobe Illustrator 28.2.0, SVG Export Plug-In . SVG Version: 6.00 Build 0)  -->
<svg version="1.1" xmlns="http://www.w3.org/2000/svg" xmlns:xlink="http://www.w3.org/1999/xlink" x="0px" y="0px"
	 viewBox="0 0 141.3 45.81" style="enable-background:new 0 0 141.3 45.81;" xml:space="preserve">
<style type="text/css">
	.st0{display:none;}
	.st1{display:inline;}
	.st2{fill:#FBFBFB;}
	.st3{display:inline;fill:#FBFBFB;}
	.st4{fill:#002855;}
	.st5{display:inline;fill:#002855;}
	.st6{display:inline;fill:#EB008B;}
</style>
<g id="Owl_Head">
</g>
<g id="Triangle_Owl">
</g>
<g id="Long_Tag">
</g>
<g id="WGU_No_Tag">
</g>
<g id="No_Tag">
	<g>
		<g>
			<g>
				<path class="st4" d="M125.38,17.86C125.38,17.86,125.38,17.86,125.38,17.86l-1.91,1.56c0,0,0,0.01,0.01,0.01
					c1.01,1.21,1.56,2.74,1.56,4.32c0,3.74-3.08,6.79-6.85,6.79c-1.76,0-3.44-0.68-4.71-1.87v-2.78c0.81,1.68,2.54,2.85,4.54,2.85
					c2.78,0,5.04-2.24,5.04-4.99c0-2.03-1.23-3.78-2.99-4.56c0.02-0.01,0.04-0.02,0.07-0.03c1.02-0.49,1.65-0.93,1.65-0.93
					l7.99-6.51c-1.89-0.55-4.44-0.75-6.74-0.43c-3.03,0.42-5.6,1.51-5.6,1.51c-2.44-1.02-3.94-1.33-6.93-1.36
					c-2.99,0.03-4.49,0.34-6.93,1.36c0,0-2.58-1.09-5.6-1.51c-2.29-0.32-4.85-0.12-6.74,0.43l7.99,6.51c0,0,0.63,0.44,1.65,0.93
					c0.04,0.02,0.07,0.03,0.11,0.05c-1.74,0.79-2.95,2.52-2.95,4.54c0,2.75,2.26,4.99,5.04,4.99c1.9,0,3.57-1.05,4.42-2.6v-4.77
					c0,0.01,0.01,0.01,0.01,0.02c0-0.02-0.01-0.05-0.01-0.08c0-0.01,0-0.01,0-0.02c0-0.82,0.67-1.49,1.51-1.49
					c0.83,0,1.51,0.67,1.51,1.49c0,0.01,0,0.01,0,0.02h0v11.57l-2.91-2.84l-0.57-0.58c-0.95,0.91-2.06,1.09-3.79,1.09
					c-3.78,0-6.86-3.05-6.86-6.79c0-1.84,0.35-3.01,1.35-4.12l-1.9-1.57c-1.32,1.53-1.93,3.31-1.93,5.69c0,5.1,4.19,9.25,9.33,9.25
					c0.78,0,1.62-0.03,2.46-0.2c1.25,1.12,4.97,4.42,4.97,4.42l5.09-4.55c0.78,0.21,1.6,0.33,2.43,0.33c5.15,0,9.33-4.15,9.33-9.25
					C127.51,21.6,126.76,19.51,125.38,17.86z M118.08,20.71c0.42,0,0.81,0.08,1.18,0.24c-0.13-0.03-0.26-0.04-0.4-0.04
					c-1.09,0-1.97,0.88-1.97,1.97c0,1.09,0.88,1.97,1.97,1.97s1.97-0.88,1.97-1.97c0-0.21-0.03-0.42-0.1-0.61
					c0.24,0.44,0.38,0.94,0.38,1.47c0,1.67-1.35,3.02-3.02,3.02c-1.67,0-3.03-1.35-3.03-3.02
					C115.06,22.07,116.41,20.71,118.08,20.71z M103.12,26.76c-1.67,0-3.02-1.35-3.02-3.02c0-1.67,1.35-3.02,3.02-3.02
					c0.42,0,0.82,0.09,1.19,0.24c-0.14-0.03-0.28-0.05-0.42-0.05c-1.09,0-1.97,0.88-1.97,1.97c0,1.09,0.88,1.97,1.97,1.97
					c1.09,0,1.97-0.88,1.97-1.97c0-0.23-0.04-0.45-0.11-0.65c0.26,0.44,0.41,0.96,0.41,1.51C106.14,25.41,104.79,26.76,103.12,26.76
					z"/>
				<path class="st4" d="M127.25,32.99c0-0.35-0.21-0.41-0.52-0.41h-0.65v1.34h0.28v-0.53h0.23l0.31,0.53h0.3l-0.32-0.53
					C127.12,33.37,127.25,33.24,127.25,32.99z M126.73,33.15h-0.38v-0.32h0.31c0.13,0,0.31,0,0.31,0.15
					C126.98,33.12,126.88,33.15,126.73,33.15z"/>
				<path class="st4" d="M126.61,31.97c-0.72,0-1.28,0.57-1.28,1.29c0,0.72,0.57,1.29,1.28,1.29c0.71,0,1.28-0.57,1.28-1.29
					C127.89,32.54,127.33,31.97,126.61,31.97z M126.61,34.27c-0.55,0-1-0.44-1-1.01c0-0.58,0.45-1.01,1-1.01c0.55,0,1,0.43,1,1.01
					C127.61,33.83,127.17,34.27,126.61,34.27z"/>
			</g>
			<path class="st4" d="M13.69,15.66c-0.1-0.42-0.59-0.78-1.01-0.78h-1.22v-3.43h10.63v3.43h-2.26l2.74,12.11h0.07l3.82-15.53h4.5
				l3.79,15.53h0.07l2.38-9.79c0.39-1.57,0.16-2.32-1.17-2.32h-0.91v-3.43h9.39v3.43h-0.94c-0.49,0-1.08,0.42-1.24,0.98l-4.76,18.43
				h-6.4l-3.2-13.05h-0.07l-3.2,13.05h-6.39L13.69,15.66z"/>
			<path class="st4" d="M43.41,23c0-7.6,4.31-11.84,11.35-11.84c1.66,0,3,0.16,3.72,0.29h4.37v7.5h-4.05l-0.62-3.33
				c-0.62-0.23-1.6-0.42-2.77-0.42c-3.17,0-5.42,2.12-5.42,7.54c0,5.19,1.53,7.96,4.83,7.96c1.14,0,1.76-0.1,2.41-0.29V26.4h-1.96
				v-3.33h9.53v3.36h-0.65c-0.46,0-0.91,0.59-0.91,0.98v6.88h-3.16c0,0-0.29-0.69-0.91-0.69c-1.17,0.59-2.74,0.98-4.73,0.98
				C47.3,34.58,43.41,30.51,43.41,23"/>
			<path class="st4" d="M66.84,25.74v-9.92c0-0.39-0.46-0.95-0.91-0.95h-1.08v-3.43h10.67v3.43h-2.45V26.1
				c0,3.46,1.4,4.54,3.98,4.54c2.61,0,4.01-1.08,4.01-4.54V14.88h-2.41v-3.43h9.01v3.43h-1.04c-0.42,0-0.91,0.55-0.91,0.95v9.92
				c0,5.78-2.97,8.81-9.33,8.81C70.1,34.55,66.84,31.52,66.84,25.74"/>
		</g>
	</g>
</g>
<g id="Tag">
</g>
<g id="Clearspace" class="st0">
	<rect x="0.1" class="st6" width="11.45" height="11.45"/>
	<rect x="129.85" y="34.36" class="st6" width="11.45" height="11.45"/>
</g>
</svg>
